# xmcd
#
# Track frame offsets: 
#        150
#        20800
#        42977
#        64286
#        111616
#        129578
#        145463
#        172236
#        181967
#        206064
#        226437
#
# Disc length: 3368 seconds
#
# Revision: 0
# Processed by: cddbd v1.5.2PL0 Copyright (c) Steve Scherf et al.
# Submitted via: ExactAudioCopy v1.3
#
DISCID=b30d260b
DTITLE=Francesco De Gregori - De Gregori canta Bob Dylan - Amore e fur
DTITLE=to
DYEAR=2015
DGENRE=Folk/Rock
TTITLE0=Un angioletto come te (Sweetheart like you)
TTITLE1=Servire qualcuno (Gotta serve somebody)
TTITLE2=Non dirle che non è così (If yoy see her, say hello)
TTITLE3=Via della povertà (Desolation row)
TTITLE4=Come il giorno (I shall be released)
TTITLE5=Mondo politico (Political world)
TTITLE6=Non è buio ancora (Not dark yet)
TTITLE7=Acido seminterrato (Subterranean homesick blues)
TTITLE8=Una serie di sogni (Series of dreams)
TTITLE9=Tweedle dum and tweedle dee (Tweedle dee and tweedle dum)
TTITLE10=Dignità (Dignity)
EXTD=DE GREGORI CANTA BOB DYLAN - Amore e furto\nTutti i brani sono di
EXTD=Bob Dylan | Traduzione italiana di Francesco De Gregori\n\n"VIA 
EXTD=DELLA POVERTA' " è la rielaborazione di una traduzione firmata da
EXTD=Francesco De Gregori e Fabrizio De Andrè\ne incisa da Fabrizio n
EXTD=el 1974 nell'LP "CANZONI"\n\n© 2015 - 2017 Caravan\n© 2017 Gruppo
EXTD=Editoriale L'Espresso S.p.A.
EXTT0=Sweetheart like you
EXTT1=Gotta serve somebody
EXTT2=If you see her, say hello
EXTT3=Desolation row
EXTT4=I shall be released
EXTT5=Political world
EXTT6=Not dark yet
EXTT7=Subterranean homesick blues
EXTT8=Series of dreams
EXTT9=Tweedle dee and tweedle dum
EXTT10=Dignity
PLAYORDER=
